<svg width="32" height="12" viewBox="0 0 32 12" fill="none" xmlns="http://www.w3.org/2000/svg">
<path d="M11.0427 2.89206L9.84871 5.78453L10.3505 2.89206H9.0441L8.2135 9.04068H9.62377L12.3837 2.89206H11.0427V2.89206ZM12.9459 6.44423H14.0793L14.4081 5.35321H13.2747L13.6813 4H14.8407L15.1781 2.89206H12.7037L10.8522 9.0407H13.2834L13.716 7.87356H12.5133L12.9459 6.44423ZM5.55903 10.3C4.87964 10.3 4.24001 10.1318 3.68042 9.83509L3.34691 10.509C4.00729 10.8543 4.76007 11.0498 5.55903 11.0498C7.06919 11.0498 8.41402 10.3511 9.28189 9.26318H8.25088C7.54213 9.90679 6.59717 10.3 5.55903 10.3ZM6.39681 7.96927V8.60457L7.99575 7.40455L6.44839 5.98261V6.59775H4.79782L6.44839 2.76578V5.58931L7.7849 6.82511L7.81811 0.315186H6.35557L1.01204 11.1018L2.78638 11.1358L4.22016 7.96927H6.39681V7.96927ZM2.10136 8.31617C1.76828 7.74074 1.5779 7.07425 1.5779 6.36375C1.5779 4.38486 3.055 2.74722 4.97854 2.46936L5.36861 1.68194C2.83942 1.78083 0.81958 3.83895 0.81958 6.36377C0.81958 7.37711 1.14495 8.31532 1.69797 9.08191L2.10136 8.31617V8.31617ZM7.78229 9.0407V7.87912L6.3952 9.0407H7.78229V9.0407ZM27.5066 6.12284C27.8268 6.12284 28.0084 5.93677 28.0603 5.75917L28.6919 3.67016C28.8131 3.2642 28.6314 2.89208 28.069 2.89208H25.6897L23.8382 9.0407H25.1447L25.932 6.41887H26.3646C26.5203 6.41887 26.5376 6.52882 26.503 6.63032L25.7763 9.04071H27.0827L27.7575 6.79947C27.896 6.35966 27.7056 6.15668 27.5066 6.12284ZM27.299 4.13533L26.9529 5.27709C26.8924 5.46316 26.7799 5.5139 26.6501 5.5139H26.2002L26.6934 3.8816H27.1C27.299 3.8816 27.3509 3.97462 27.299 4.13533V4.13533ZM17.4621 2.89206L16.744 5.26862L16.7007 2.89206H15.5846L13.7331 9.04068H14.9617L15.7144 6.58798L15.8269 9.04068H16.8738L18.7253 2.89206H17.4621V2.89206ZM30.5 4H31.6421L31.9795 2.89206H29.9637C29.6522 2.89206 29.3407 2.97663 29.1936 3.40797L28.4755 5.79299C28.3458 6.24123 28.4755 6.53724 29.0206 6.53724H29.7128C29.7906 6.53724 29.7906 6.57107 29.7733 6.62183L29.4705 7.66209C29.4186 7.81433 29.384 7.87354 29.1417 7.87354H28.0516L27.6969 9.04068H29.8339C30.1021 9.04068 30.3876 8.91382 30.4568 8.66853L31.1749 6.28352C31.3566 5.68303 31.0624 5.42931 30.5952 5.42931H29.8944L30.2664 4.1776C30.3097 4.04229 30.4049 4 30.5 4V4ZM20.1441 5.35321L19.8153 6.44423H20.0835L19.6077 8.01733H19.1664C18.9934 8.01733 18.9155 7.94966 18.9674 7.77206L20.0489 4.18606C20.0922 4.03382 20.1614 3.99998 20.2998 3.99998H21.5716L21.9091 2.89204H19.824C19.4087 2.89204 19.1232 3.01045 18.9847 3.46715L17.6523 7.8989C17.4101 8.71082 17.9032 9.04066 18.4916 9.04066H19.2962L19.1578 9.52274L20.6113 8.80385L21.6495 5.35316H20.1441V5.35321ZM23.051 6.44423H24.1844L24.5132 5.35321H23.3798L23.7865 4H24.9458L25.2832 2.89206H22.8088L20.9573 9.04068H23.3885L23.8211 7.87354H22.6184L23.051 6.44423Z" fill="white"/>
</svg>
