<svg width="13" height="13" viewBox="0 0 13 13" fill="none" xmlns="http://www.w3.org/2000/svg">
<path fill-rule="evenodd" clip-rule="evenodd" d="M1.65132 0.494385H11.6206C12.3089 0.494385 12.8668 1.05227 12.8668 1.74055V11.7099C12.8668 12.3981 12.3089 12.956 11.6206 12.956H1.65132C0.963034 12.956 0.405151 12.3981 0.405151 11.7099V1.74055C0.405151 1.05227 0.963034 0.494385 1.65132 0.494385Z" fill="#8E7A7A"/>
<path fill-rule="evenodd" clip-rule="evenodd" d="M8.2299 11.9592C8.60908 11.9592 8.91648 11.6543 8.91648 11.2782C8.91648 10.9021 8.60908 10.5972 8.2299 10.5972H8.12646C8.50565 10.5972 8.81305 10.9021 8.81305 11.2782C8.81305 11.6543 8.50565 11.9592 8.12646 11.9592H8.2299Z" fill="white"/>
<path fill-rule="evenodd" clip-rule="evenodd" d="M8.11722 10.5972H8.01379C7.6346 10.5972 7.32715 10.9021 7.32715 11.2782C7.32715 11.6543 7.6346 11.9592 8.01379 11.9592H8.11722C7.73798 11.9592 7.43058 11.6543 7.43058 11.2782C7.43058 10.9021 7.73798 10.5972 8.11722 10.5972V10.5972Z" fill="white"/>
<path d="M8.12201 11.6093C8.30643 11.6093 8.45593 11.461 8.45593 11.2781C8.45593 11.0953 8.30643 10.947 8.12201 10.947C7.93759 10.947 7.78809 11.0953 7.78809 11.2781C7.78809 11.461 7.93759 11.6093 8.12201 11.6093Z" fill="#C1B9B9"/>
<path fill-rule="evenodd" clip-rule="evenodd" d="M2.89734 10.2893V10.6345H3.30169V11.9498H3.7062V10.6438H4.03534L4.14819 10.2893H2.89734ZM6.2079 10.2893V10.6345H6.61225V11.9498H7.01676V10.6438H7.3459L7.45875 10.2893H6.2079ZM4.22351 10.4852C4.22351 10.377 4.31179 10.2893 4.42085 10.2893C4.53001 10.2893 4.61839 10.377 4.61839 10.4852C4.61839 10.5934 4.53006 10.6811 4.42085 10.6811C4.31179 10.6811 4.22351 10.5934 4.22351 10.4852ZM4.22351 10.8211H4.61839V11.9498H4.22351V10.8211ZM4.78772 10.2893V11.9498H5.18275V11.5208L5.30503 11.4087L5.69059 11.9592H6.11379L5.55885 11.1569L6.05731 10.6717H5.57769L5.18275 11.0635V10.2893H4.78772ZM9.04811 10.2893V11.9498H9.44319V11.5208L9.56542 11.4087L9.95108 11.9592H10.3743L9.81938 11.1569L10.3178 10.6717H9.83822L9.44319 11.0635V10.2893H9.04811Z" fill="white"/>
<path fill-rule="evenodd" clip-rule="evenodd" d="M8.43874 4.5413C8.98426 4.93105 9.6526 5.16039 10.3744 5.16039V3.77212C10.2378 3.77217 10.1015 3.75792 9.96788 3.7296V4.82238C9.24616 4.82238 8.57791 4.59304 8.03224 4.20329V7.03632C8.03224 8.45356 6.88278 9.60237 5.4649 9.60237C4.93587 9.60237 4.44414 9.44251 4.03564 9.16836C4.50186 9.64479 5.15201 9.94038 5.87129 9.94038C7.28928 9.94038 8.43879 8.79157 8.43879 7.37428V4.5413H8.43874ZM8.9402 3.14071C8.66141 2.8363 8.47837 2.44286 8.43874 2.0079V1.82935H8.05353C8.15048 2.38214 8.48121 2.85444 8.9402 3.14071V3.14071ZM4.93243 8.08085C4.77669 7.87673 4.6925 7.627 4.69287 7.37024C4.69287 6.72204 5.21865 6.1965 5.86731 6.1965C5.98818 6.19642 6.10834 6.21496 6.22356 6.25148V4.8322C6.08893 4.81376 5.95306 4.80595 5.81721 4.80882V5.91352C5.70194 5.877 5.58173 5.85846 5.46081 5.85854C4.81215 5.85854 4.28642 6.38408 4.28642 7.03233C4.28642 7.49067 4.54921 7.88755 4.93243 8.08085V8.08085Z" fill="white"/>
<path fill-rule="evenodd" clip-rule="evenodd" d="M8.03254 4.20329C8.57821 4.59304 9.24646 4.82238 9.96819 4.82238V3.7296C9.56533 3.64386 9.20867 3.43341 8.9405 3.14071C8.48151 2.85444 8.15078 2.38214 8.05383 1.82935H7.04199V7.37423C7.0397 8.02064 6.51482 8.54403 5.86756 8.54403C5.48613 8.54403 5.14728 8.36234 4.93269 8.08085C4.54947 7.88755 4.28668 7.49067 4.28668 7.03233C4.28668 6.38408 4.81241 5.85854 5.46106 5.85854C5.58533 5.85854 5.70511 5.87788 5.81746 5.91352V4.80882C4.4245 4.83759 3.3042 5.97518 3.3042 7.37428C3.3042 8.07268 3.58319 8.70583 4.03595 9.16841C4.44444 9.44256 4.93618 9.60242 5.4652 9.60242C6.88308 9.60242 8.03254 8.45356 8.03254 7.03637V4.20329Z" fill="white"/>
<path fill-rule="evenodd" clip-rule="evenodd" d="M9.96777 3.72967V3.43418C9.60446 3.43472 9.24833 3.33303 8.94008 3.14073C9.21293 3.4393 9.57222 3.6452 9.96777 3.72967V3.72967ZM8.05341 1.82941C8.04415 1.77659 8.03705 1.72341 8.03213 1.67001V1.49146H6.63503V7.03639C6.63279 7.68275 6.10795 8.20614 5.46065 8.20614C5.27058 8.20614 5.09118 8.16108 4.93227 8.08092C5.14686 8.36241 5.48572 8.5441 5.86715 8.5441C6.51435 8.5441 7.03929 8.02071 7.04158 7.3743V1.82941H8.05341ZM5.8171 4.80889V4.49431C5.70036 4.47835 5.58266 4.47037 5.46483 4.47044C4.0468 4.47044 2.89734 5.6193 2.89734 7.03639C2.89734 7.92485 3.3491 8.70784 4.03558 9.16842C3.58283 8.70585 3.30384 8.0727 3.30384 7.3743C3.30384 5.97525 4.42409 4.83766 5.8171 4.80889V4.80889Z" fill="white"/>
<path fill-rule="evenodd" clip-rule="evenodd" d="M8.12662 11.9592C8.5058 11.9592 8.81325 11.6543 8.81325 11.2782C8.81325 10.9021 8.5058 10.5972 8.12662 10.5972H8.11725C7.73807 10.5972 7.43066 10.9021 7.43066 11.2782C7.43066 11.6543 7.73807 11.9592 8.11725 11.9592H8.12662ZM7.78806 11.2782C7.78806 11.0953 7.9376 10.9471 8.12203 10.9471C8.30631 10.9471 8.45585 11.0953 8.45585 11.2782C8.45585 11.4612 8.30631 11.6095 8.12203 11.6095C7.9376 11.6094 7.78806 11.4612 7.78806 11.2782Z" fill="white"/>
</svg>
