<svg width="50" height="50" viewBox="0 0 50 50" fill="none" xmlns="http://www.w3.org/2000/svg">
<path d="M47.6948 39.5084C51.3663 22.4239 48.3772 11.1557 46.4654 7.70119L46.4584 7.68857L46.4528 7.67532C45.674 5.84405 43.8792 3.31145 41.0402 1.69549C38.3718 0.176656 34.7619 -0.543883 30.16 0.917708L30.1627 0.925855C13.3888 6.51552 5.0825 14.7944 3.04328 18.1772L3.03583 18.1896L3.02714 18.2011C1.82656 19.7953 0.531898 22.609 0.56896 25.842C0.603858 28.8862 1.81919 32.3241 5.45468 35.4898L5.45628 35.4879C18.8756 46.5833 30.3036 49.2272 34.2814 49.1777L34.2959 49.1775L34.3104 49.1788C36.3072 49.3553 39.4114 48.9794 42.1993 47.2756C44.5682 45.8278 46.7234 43.4129 47.7761 39.5254L47.6948 39.5084Z" fill="#F7F3FA"/>
</svg>
