<svg width="96" height="100" viewBox="0 0 96 100" fill="none" xmlns="http://www.w3.org/2000/svg">
<path d="M3.73561 96.144C5.89561 96.144 6.93961 95.04 6.93961 93.576C6.93961 90.588 2.34361 91.44 2.34361 90.168C2.34361 89.688 2.75161 89.364 3.48361 89.364C4.29961 89.364 5.16361 89.64 5.81161 90.24L6.75961 88.992C5.96761 88.26 4.91161 87.876 3.63961 87.876C1.75561 87.876 0.603609 88.98 0.603609 90.312C0.603609 93.324 5.21161 92.352 5.21161 93.768C5.21161 94.224 4.75561 94.656 3.81961 94.656C2.71561 94.656 1.83961 94.164 1.27561 93.576L0.351609 94.872C1.09561 95.628 2.19961 96.144 3.73561 96.144ZM10.7749 96.144C11.6749 96.144 12.5869 95.868 13.1629 95.34L12.4909 94.356C12.1189 94.716 11.4349 94.932 10.9429 94.932C9.95892 94.932 9.37092 94.32 9.27492 93.588H13.5829V93.252C13.5829 91.356 12.4069 90.06 10.6789 90.06C8.91492 90.06 7.67892 91.416 7.67892 93.096C7.67892 94.956 9.01092 96.144 10.7749 96.144ZM12.1069 92.556H9.25092C9.32292 91.98 9.73092 91.272 10.6789 91.272C11.6869 91.272 12.0709 92.004 12.1069 92.556ZM17.4077 96.144C18.3077 96.144 19.2197 95.868 19.7957 95.34L19.1237 94.356C18.7517 94.716 18.0677 94.932 17.5757 94.932C16.5917 94.932 16.0037 94.32 15.9077 93.588H20.2157V93.252C20.2157 91.356 19.0397 90.06 17.3117 90.06C15.5477 90.06 14.3117 91.416 14.3117 93.096C14.3117 94.956 15.6437 96.144 17.4077 96.144ZM18.7397 92.556H15.8837C15.9557 91.98 16.3637 91.272 17.3117 91.272C18.3197 91.272 18.7037 92.004 18.7397 92.556ZM31.6229 96V87.996H29.9069V91.14H26.1269V87.996H24.4229V96H26.1269V92.64H29.9069V96H31.6229ZM35.8522 96.144C37.7722 96.144 38.9242 94.752 38.9242 93.096C38.9242 91.452 37.7722 90.06 35.8522 90.06C33.9442 90.06 32.7922 91.452 32.7922 93.096C32.7922 94.752 33.9442 96.144 35.8522 96.144ZM35.8522 94.788C34.9042 94.788 34.3762 94.008 34.3762 93.096C34.3762 92.196 34.9042 91.416 35.8522 91.416C36.8002 91.416 37.3402 92.196 37.3402 93.096C37.3402 94.008 36.8002 94.788 35.8522 94.788ZM46.7628 96L48.5268 90.204H46.9428L45.8628 94.104L44.5908 90.204H43.2348L41.9628 94.104L40.8828 90.204H39.2988L41.0628 96H42.6948L43.9188 92.052L45.1428 96H46.7628ZM54.0878 96V87.996H52.3838V96H54.0878ZM57.5848 96.144C58.2208 96.144 58.6288 95.976 58.8568 95.772L58.5328 94.62C58.4488 94.704 58.2328 94.788 58.0048 94.788C57.6688 94.788 57.4768 94.512 57.4768 94.152V91.536H58.6528V90.204H57.4768V88.62H55.9408V90.204H54.9808V91.536H55.9408V94.56C55.9408 95.592 56.5168 96.144 57.5848 96.144ZM70.7338 96L73.0138 87.996H71.0938L69.7018 93.78L68.1898 87.996H66.8578L65.3338 93.78L63.9298 87.996H62.0218L64.3138 96H66.1258L67.5178 90.504L68.9218 96H70.7338ZM75.9889 96.144C77.9089 96.144 79.0609 94.752 79.0609 93.096C79.0609 91.452 77.9089 90.06 75.9889 90.06C74.0809 90.06 72.9289 91.452 72.9289 93.096C72.9289 94.752 74.0809 96.144 75.9889 96.144ZM75.9889 94.788C75.0409 94.788 74.5129 94.008 74.5129 93.096C74.5129 92.196 75.0409 91.416 75.9889 91.416C76.9369 91.416 77.4769 92.196 77.4769 93.096C77.4769 94.008 76.9369 94.788 75.9889 94.788ZM81.7155 96V92.172C81.9675 91.8 82.6395 91.512 83.1435 91.512C83.3115 91.512 83.4555 91.524 83.5635 91.548V90.06C82.8435 90.06 82.1235 90.48 81.7155 90.996V90.204H80.1915V96H81.7155ZM90.1798 96L87.8158 92.832L90.1078 90.204H88.2358L86.0398 92.784V87.996H84.5158V96H86.0398V94.512L86.7358 93.768L88.2718 96H90.1798ZM93.0256 96.144C94.6336 96.144 95.5336 95.34 95.5336 94.284C95.5336 91.944 92.1016 92.664 92.1016 91.8C92.1016 91.476 92.4616 91.224 93.0136 91.224C93.7216 91.224 94.3816 91.524 94.7296 91.896L95.3416 90.852C94.7656 90.396 93.9856 90.06 93.0016 90.06C91.4776 90.06 90.6256 90.912 90.6256 91.884C90.6256 94.164 94.0696 93.384 94.0696 94.344C94.0696 94.704 93.7576 94.968 93.0976 94.968C92.3776 94.968 91.5136 94.572 91.0936 94.176L90.4336 95.244C91.0456 95.808 92.0176 96.144 93.0256 96.144Z" fill="#FFBC51"/>
<circle cx="47.5" cy="38.5" r="27.5" fill="#FFBC51"/>
<circle opacity="0.7" cx="47.5" cy="38.5" r="38.5" fill="#FFBC51"/>
<path d="M54 38.5L45 43.2631L45 33.7369L54 38.5Z" fill="white"/>
</svg>
