<svg width="82" height="29" viewBox="0 0 82 29" fill="none" xmlns="http://www.w3.org/2000/svg">
<g opacity="0.4" clip-path="url(#clip0_19_533)">
<rect width="81.266" height="28.2174" transform="translate(0.535309 0.484863)" fill="white" style="mix-blend-mode:color-burn"/>
<path d="M27.1992 7.20471L24.0857 14.7476L25.3942 7.20471H21.9874L19.8215 23.2388H23.4991L30.6963 7.20471H27.1992V7.20471ZM32.1624 16.4679H35.1181L35.9754 13.6228H33.0198L34.0802 10.0939H37.1035L37.9834 7.20471H31.5307L26.7025 23.2388H33.0424L34.1705 20.1952H31.0343L32.1624 16.4679ZM12.8993 26.5228C11.1276 26.5228 9.45959 26.084 8.00032 25.3104L7.13059 27.0679C8.85271 27.9682 10.8158 28.4779 12.8993 28.4779C16.8374 28.4779 20.3444 26.6561 22.6075 23.819H19.9189C18.0707 25.4974 15.6065 26.5228 12.8993 26.5228ZM15.084 20.4448V22.1015L19.2536 18.9722L15.2185 15.2641V16.8682H10.9142L15.2185 6.87541V14.2385L18.7038 17.4611L18.7904 0.484863H14.9764L1.04184 28.6136L5.66887 28.7022L9.40782 20.4448H15.084V20.4448ZM3.8825 21.3494C3.01393 19.8489 2.51745 18.1108 2.51745 16.258C2.51745 11.0976 6.36936 6.82701 11.3855 6.10242L12.4027 4.04902C5.80718 4.30689 0.539948 9.67397 0.539948 16.2581C0.539948 18.9006 1.38843 21.3472 2.83056 23.3463L3.8825 21.3494V21.3494ZM18.697 23.2388V20.2097L15.0798 23.2388H18.697V23.2388ZM70.1332 15.6298C70.968 15.6298 71.4417 15.1446 71.5771 14.6814L73.2241 9.23381C73.54 8.17517 73.0662 7.20476 71.5997 7.20476H65.3951L60.5669 23.2388H63.9737L66.0268 16.4018H67.1549C67.5611 16.4018 67.6062 16.6885 67.5159 16.9532L65.6208 23.2389H69.0276L70.7874 17.3943C71.1485 16.2473 70.6521 15.718 70.1332 15.6298ZM69.5917 10.4469L68.6892 13.4243C68.5313 13.9095 68.238 14.0418 67.8995 14.0418H66.7264L68.0124 9.78518H69.0728C69.5917 9.78518 69.7271 10.0278 69.5917 10.4469V10.4469ZM43.9395 7.20471L42.0669 13.4022L41.9541 7.20471H39.0435L34.2153 23.2388H37.4191L39.382 16.8427L39.6753 23.2388H42.4053L47.2335 7.20471H43.9395V7.20471ZM77.9392 10.0939H80.9174L81.7973 7.20471H76.5404C75.7282 7.20471 74.916 7.42525 74.5324 8.55008L72.6598 14.7696C72.3214 15.9385 72.6598 16.7104 74.0812 16.7104H75.8862C76.0893 16.7104 76.0893 16.7987 76.0441 16.931L75.2544 19.6438C75.1191 20.0408 75.0288 20.1952 74.3971 20.1952H71.5543L70.6292 23.2388H76.202C76.9014 23.2388 77.646 22.908 77.8265 22.2683L79.6991 16.0488C80.1729 14.4829 79.4058 13.8212 78.1874 13.8212H76.3599L77.33 10.5571C77.4428 10.2042 77.6911 10.0939 77.9392 10.0939V10.0939ZM50.9334 13.6228L50.0761 16.4679H50.7755L49.5346 20.5701H48.3839C47.9327 20.5701 47.7296 20.3937 47.865 19.9305L50.6852 10.5791C50.798 10.1821 50.9786 10.0939 51.3396 10.0939H54.6562L55.5361 7.20466H50.0986C49.0157 7.20466 48.2711 7.51343 47.9101 8.70439L44.4356 20.2613C43.8039 22.3786 45.0899 23.2387 46.6241 23.2387H48.7224L48.3614 24.4959L52.1518 22.6212L54.8592 13.6226H50.9334V13.6228ZM58.5141 16.4679H61.4697L62.3271 13.6228H59.3714L60.4318 10.0939H63.4551L64.335 7.20471H57.8823L53.0541 23.2388H59.394L60.5221 20.1952H57.386L58.5141 16.4679Z" fill="black"/>
</g>
<defs>
<clipPath id="clip0_19_533">
<rect width="81.266" height="28.2174" fill="white" transform="translate(0.535309 0.484863)"/>
</clipPath>
</defs>
</svg>
