<svg width="26" height="13" viewBox="0 0 26 13" fill="none" xmlns="http://www.w3.org/2000/svg">
<path d="M2.96676 5.07805V1.72291C2.96676 1.59859 2.97916 1.52403 3.19052 1.52403H6.03611C6.53325 1.52403 6.80663 1.9466 7.00551 2.74185L7.16704 3.37571H7.65163C7.73852 1.57393 7.81301 0.791016 7.81301 0.791016C7.81301 0.791016 6.59527 0.927666 5.87451 0.927666H2.23375L0.282471 0.865505V1.38745L0.941213 1.5117C1.401 1.59874 1.51262 1.69803 1.5502 2.12068C1.5502 2.12068 1.58755 3.36331 1.58755 5.4138C1.58755 7.464 1.5502 8.69437 1.5502 8.69437C1.5502 9.06712 1.401 9.20377 0.941213 9.29103L0.282471 9.41535V9.937L2.23375 9.87499H5.48951C6.22267 9.87499 7.92508 9.937 7.92508 9.937C7.96221 9.48954 8.21093 7.464 8.24821 7.24061H7.78843L7.30377 8.34658C6.91847 9.21624 6.35939 9.27848 5.73793 9.27848H3.88625C3.26486 9.27848 2.96661 9.02991 2.96661 8.49564V5.6623C2.96661 5.6623 4.32108 5.6623 4.79319 5.69965C5.1412 5.72461 5.35234 5.82398 5.46434 6.30856L5.61354 6.95476H6.14759L6.11045 5.32669L6.18494 3.68651H5.65075L5.47689 4.4072C5.36489 4.87938 5.29048 4.96657 4.80574 5.01611C4.25907 5.07841 2.96653 5.06594 2.96653 5.06594V5.07827H2.96676V5.07805V5.07805ZM10.3357 2.07092C10.1617 2.84136 9.98768 3.4378 9.37877 3.83549C9.00603 4.08392 8.63314 4.17081 8.48423 4.18328V4.65547H9.59013V8.47039C9.59013 9.53923 10.2986 10.0612 11.2429 10.0612C11.9761 10.0612 12.734 9.75059 12.995 9.10425L12.734 8.76872C12.6097 8.98008 12.2123 9.29066 11.7151 9.29066C11.1684 9.29066 10.8702 8.91777 10.8702 7.97354V4.60601L12.7095 4.74281L12.8088 3.89758L10.8703 3.97222V2.08325L10.3357 2.07092V2.07092ZM14.2626 7.93885L13.7904 7.95125C13.8152 8.22455 13.8278 8.57264 13.8278 8.89569C13.8278 9.23123 13.8154 9.54189 13.7904 9.69094C13.7904 9.69094 14.7349 10.0386 15.6917 10.0386C16.9841 10.0386 18.0156 9.41727 18.0156 8.19945C18.0156 6.11204 14.8841 6.42277 14.8841 5.01832C14.8841 4.43436 15.4059 4.2106 15.9776 4.2106C16.4249 4.2106 16.7977 4.37213 16.8723 4.60844L17.183 5.54041L17.6428 5.51561C17.6802 5.01847 17.7049 4.44684 17.7796 3.98713C17.3818 3.81312 16.5491 3.71353 16.0276 3.71353C14.8095 3.71353 13.828 4.24795 13.828 5.44097C13.828 7.51612 16.8848 7.09362 16.8848 8.62232C16.8848 9.16885 16.5491 9.55414 15.7913 9.55414C15.0956 9.55414 14.7475 9.19387 14.6111 8.83331L14.2626 7.93885V7.93885ZM21.7524 9.37445C21.033 11.384 20.1523 11.9047 19.3585 11.9047C19.0234 11.9047 18.8624 11.7557 18.8125 11.5204L18.6265 10.5526L18.1054 10.5774C18.0062 11.1481 17.907 11.7809 17.7707 12.3018C18.0808 12.5371 18.6015 12.6614 19.011 12.6614C19.8671 12.6614 21.1694 12.5496 22.36 9.72165L24.3572 5.00828C24.5186 4.62365 24.5803 4.58644 25.0517 4.40026L25.3122 4.30126V3.86709L24.1338 3.9291L22.8686 3.86709V4.30126L23.191 4.40026C23.5133 4.4997 23.6625 4.62365 23.6625 4.84697C23.6625 4.95852 23.6251 5.07022 23.563 5.24371C23.3769 5.71538 22.2233 8.51852 21.9136 9.11407L22.2233 9.00223C21.6774 7.65026 20.8467 5.39254 20.7225 5.00835C20.6977 4.93386 20.6853 4.87185 20.6853 4.80954C20.6853 4.61117 20.8218 4.44987 21.1195 4.38793L21.5289 4.30133V3.86716L19.8293 3.92918L18.4774 3.86716V4.30133L18.7007 4.37567C19.0107 4.47489 19.0852 4.56179 19.2713 4.99588C20.3005 7.35275 20.7845 8.64255 21.4417 10.3297L21.7524 9.37445V9.37445Z" fill="white"/>
</svg>
