<svg width="67" height="32" viewBox="0 0 67 32" fill="none" xmlns="http://www.w3.org/2000/svg">
<g clip-path="url(#clip0_19_535)">
<rect width="65.2714" height="30.9648" transform="translate(0.80127 0.111084)" fill="white" style="mix-blend-mode:color-burn"/>
<path d="M7.80053 11.2954V2.546C7.80053 2.2218 7.83287 2.02735 8.38405 2.02735H15.8046C17.1011 2.02735 17.814 3.12933 18.3326 5.20313L18.7538 6.85609H20.0175C20.2441 2.1575 20.4384 0.115845 20.4384 0.115845C20.4384 0.115845 17.2628 0.472195 15.3832 0.472195H5.88902L0.800579 0.310095V1.6712L2.51842 1.9952C3.71742 2.22218 4.0085 2.48112 4.1065 3.58328C4.1065 3.58328 4.20391 6.82374 4.20391 12.1709C4.20391 17.5173 4.1065 20.7258 4.1065 20.7258C4.1065 21.6979 3.71742 22.0542 2.51842 22.2818L0.800579 22.606V23.9663L5.88902 23.8046H14.3792C16.2911 23.8046 20.7306 23.9663 20.7306 23.9663C20.8274 22.7994 21.476 17.5173 21.5733 16.9348H20.3743L19.1104 19.8189C18.1056 22.0867 16.6477 22.249 15.0271 22.249H10.1983C8.57791 22.249 7.80014 21.6008 7.80014 20.2076V12.8189C7.80014 12.8189 11.3323 12.8189 12.5634 12.9164C13.4709 12.9814 14.0215 13.2406 14.3136 14.5042L14.7027 16.1893H16.0954L15.9985 11.9438L16.1928 7.66659H14.7997L14.3463 9.54594C14.0543 10.7773 13.8602 11.0047 12.5961 11.1338C11.1706 11.2963 7.79995 11.2638 7.79995 11.2638V11.2959H7.80053V11.2954ZM27.0169 3.45353C26.5631 5.46264 26.1094 7.01799 24.5215 8.05509C23.5494 8.70291 22.577 8.9295 22.1887 8.96204V10.1934H25.0726V20.1417C25.0726 22.929 26.92 24.2903 29.3825 24.2903C31.2946 24.2903 33.271 23.4802 33.9518 21.7947L33.271 20.9197C32.9468 21.4709 31.9105 22.2808 30.6141 22.2808C29.1885 22.2808 28.4107 21.3084 28.4107 18.8461V10.0644L33.2071 10.4211L33.466 8.21699L28.4109 8.41163V3.48568L27.0169 3.45353ZM37.2573 18.7556L36.026 18.788C36.0906 19.5007 36.1234 20.4084 36.1234 21.2508C36.1234 22.1258 36.091 22.9359 36.026 23.3246C36.026 23.3246 38.4888 24.2312 40.9841 24.2312C44.3543 24.2312 47.0441 22.611 47.0441 19.4352C47.0441 13.9918 38.8779 14.8021 38.8779 11.1396C38.8779 9.61679 40.2388 9.03327 41.7295 9.03327C42.8961 9.03327 43.8682 9.4545 44.0626 10.0707L44.8729 12.5011L46.0721 12.4364C46.1695 11.14 46.234 9.64933 46.4286 8.45052C45.3914 7.99675 43.22 7.73705 41.86 7.73705C38.6835 7.73705 36.1239 9.13068 36.1239 12.2418C36.1239 17.6533 44.0953 16.5515 44.0953 20.5379C44.0953 21.9631 43.22 22.9679 41.2438 22.9679C39.4295 22.9679 38.5217 22.0284 38.166 21.0882L37.2573 18.7556ZM56.7888 22.4993C54.9127 27.7398 52.6162 29.0975 50.5462 29.0975C49.6724 29.0975 49.2523 28.709 49.1224 28.0954L48.6372 25.5717L47.2784 25.6364C47.0197 27.1246 46.7609 28.7748 46.4055 30.133C47.2143 30.7468 48.5721 31.071 49.64 31.071C51.8725 31.071 55.2685 30.7793 58.3732 23.4047L63.5814 11.1134C64.0023 10.1104 64.1634 10.0134 65.3926 9.52785L66.072 9.26968V8.13748L62.9989 8.2992L59.6997 8.13748V9.26968L60.5402 9.52785C61.3809 9.78717 61.7698 10.1104 61.7698 10.6928C61.7698 10.9837 61.6724 11.2749 61.5103 11.7274C61.0252 12.9574 58.0169 20.2673 57.2091 21.8203L58.0167 21.5286C56.5932 18.0031 54.427 12.1155 54.1032 11.1136C54.0385 10.9194 54.0062 10.7577 54.0062 10.5952C54.0062 10.0779 54.3619 9.65722 55.1383 9.4957L56.2059 9.26987V8.13768L51.7739 8.29939L48.2483 8.13768V9.26987L48.8307 9.46374C49.6393 9.72248 49.8335 9.94908 50.3187 11.0811C53.0026 17.2272 54.2649 20.5907 55.9785 24.9903L56.7888 22.4993Z" fill="#999999"/>
</g>
<defs>
<clipPath id="clip0_19_535">
<rect width="65.2714" height="30.9648" fill="white" transform="translate(0.80127 0.111084)"/>
</clipPath>
</defs>
</svg>
