<svg width="26" height="14" viewBox="0 0 26 14" fill="none" xmlns="http://www.w3.org/2000/svg">
<g clip-path="url(#clip0_19_594)">
<rect width="25.5145" height="13.4506" fill="white" style="mix-blend-mode:color-burn"/>
<path fill-rule="evenodd" clip-rule="evenodd" d="M25.5147 6.72588C25.5147 10.4396 19.8024 13.4503 12.758 13.4503C5.71182 13.4503 0.000244141 10.4396 0.000244141 6.72588C0.000244141 3.01213 5.71182 0.00146484 12.758 0.00146484C19.8024 0.00146484 25.5147 3.01213 25.5147 6.72588Z" fill="white"/>
<path fill-rule="evenodd" clip-rule="evenodd" d="M24.9867 6.72049C24.9867 10.1312 19.5093 12.8961 12.7532 12.8961C5.99688 12.8961 0.519592 10.1312 0.519592 6.72049C0.519592 3.30995 5.99688 0.545166 12.7532 0.545166C19.5093 0.545134 24.9867 3.30995 24.9867 6.72049ZM12.7532 1.03135C6.26184 1.03135 0.999137 3.57853 0.999137 6.72046C0.999137 9.86245 6.26184 12.4096 12.7532 12.4096C19.2444 12.4096 24.5069 9.86245 24.5069 6.72046C24.5069 3.57853 19.2444 1.03135 12.7532 1.03135Z" fill="#B7C0BD"/>
<path fill-rule="evenodd" clip-rule="evenodd" d="M24.2028 6.72038C24.2028 9.69347 19.0766 12.1037 12.7533 12.1037C6.42976 12.1037 1.30365 9.69347 1.30365 6.72038C1.30365 3.74749 6.42976 1.3374 12.7533 1.3374C19.0766 1.3374 24.2028 3.74745 24.2028 6.72038ZM20.0912 4.20013H18.1275L17.8883 4.88751H19.1593L17.7095 5.39213L17.6137 5.67091L19.8446 4.93547L20.0912 4.20013ZM7.57112 5.40659H6.77121C6.77121 5.40659 7.51256 3.42017 7.57201 3.26999C7.67777 3.00391 7.74092 3.02222 7.74092 3.02222H6.63611C6.77287 3.08801 6.6517 3.34732 6.6517 3.34732C6.6517 3.34732 5.7668 5.82461 5.70515 5.94837C5.64353 6.07238 5.59735 6.08796 5.59735 6.08796H7.51065L7.77826 5.35426C7.75521 5.42413 7.57112 5.40659 7.57112 5.40659ZM10.9273 6.08479H11.8284C11.8284 6.08479 11.7667 5.99287 11.8052 5.89232C11.8586 5.75266 12.3367 4.44464 12.3367 4.44464L12.5446 6.08479H13.3609L14.431 3.16726C14.431 3.16726 14.4748 3.03042 14.5345 3.03042L13.6671 3.02786C13.6671 3.02786 13.6919 3.12857 13.661 3.20603C13.6304 3.28349 13.1373 4.60726 13.1373 4.60726L12.9448 3.02789H12.0132C12.0132 3.02789 12.0614 3.10522 12.0306 3.19035C12.0054 3.25941 11.0429 5.91541 11.0429 5.91541C11.0429 5.91541 10.9813 6.08479 10.9273 6.08479ZM15.0474 3.02873C15.0474 3.02873 15.1244 3.15258 15.0241 3.43889C14.9239 3.72543 14.1385 5.85423 14.1385 5.85423C14.1385 5.85423 14.0767 6.05449 13.9922 6.09338L15.2244 6.09197C15.2244 6.09197 16.7181 6.14747 17.1803 4.5691C17.1803 4.5691 17.7655 3.01311 16.0713 3.02873H15.0474ZM15.1781 5.38706C15.1781 5.38706 15.1821 5.38584 15.3205 5.38584C15.5301 5.38584 15.9183 5.33939 16.1792 4.70081C16.6079 3.65121 16.0098 3.6867 16.0098 3.6867H15.7787L15.1781 5.38706ZM4.2203 8.55656H6.18393L6.4229 7.86906H5.15203L6.60173 7.36454L6.69779 7.08589L4.46677 7.82132L4.2203 8.55656ZM7.6615 9.82461C7.63047 9.82461 7.63047 9.7247 7.63047 9.7247L7.99163 8.76124C7.99163 8.76124 8.44154 9.64875 8.47245 9.71072C8.50329 9.77273 8.48769 9.82432 8.48769 9.82432H9.56405C9.46142 9.82432 9.3555 9.62823 9.3555 9.62823L8.81967 8.66163C9.56916 8.66163 9.8089 7.91481 9.8089 7.91481C10.1785 6.72779 8.93451 6.7587 8.93451 6.7587H7.6615C7.7538 6.86197 7.68185 7.07874 7.68185 7.07874C7.68185 7.07874 6.89125 9.35099 6.8298 9.52659C6.76811 9.70203 6.65521 9.82461 6.65521 9.82461H7.6615ZM8.42439 7.46354L8.21574 8.08009H8.41083C8.41083 8.08009 8.79087 8.11372 8.93107 7.81C8.93107 7.81 9.0951 7.46197 8.6366 7.46197C8.53623 7.46197 8.42439 7.46354 8.42439 7.46354ZM18.7989 9.83586C18.7219 9.83743 18.7755 9.64801 18.7755 9.64801L19.0978 8.77247C19.0978 8.77247 19.5322 9.66013 19.5627 9.72226C19.5936 9.78411 19.5783 9.8357 19.5783 9.8357H20.6929C20.5901 9.8357 20.4771 9.63961 20.4771 9.63961L19.941 8.67272C20.6909 8.67272 20.9164 7.95284 20.9164 7.95284C21.3101 6.7099 20.0563 6.77011 20.0563 6.77011H18.7933C18.8859 6.87335 18.814 7.09012 18.814 7.09012C18.814 7.09012 17.9905 9.37109 17.9286 9.54637C17.8671 9.72223 17.7489 9.83413 17.7489 9.83413L18.7989 9.83586ZM19.5328 8.09122C19.5328 8.09122 19.9099 8.11988 20.0254 7.82286C20.1616 7.47297 19.8216 7.48224 19.8216 7.48224H19.5429L19.3376 8.09122H19.5328ZM11.14 9.90043C12.2511 9.90043 12.9123 8.80485 12.9123 8.01882C12.9123 7.19429 12.5751 6.67979 11.8052 6.67979C10.823 6.67979 10.1822 7.42905 10.0168 8.36057C9.86487 9.2172 10.3461 9.90043 11.14 9.90043ZM11.21 9.17596C11.4871 9.22739 11.7918 9.02691 11.9509 8.38625C12.1922 7.4168 11.7475 7.40881 11.6663 7.39884C11.4204 7.36864 11.0921 7.65335 10.9588 8.24697C10.8977 8.51809 10.8329 9.10572 11.21 9.17596ZM13.176 6.77011C13.176 6.77011 13.2524 6.81134 13.2524 7.0073V9.6601C13.2524 9.6601 13.242 9.80534 13.1874 9.8357H14.0129C14.0129 9.8357 14.0129 9.77356 14.0948 9.67039C14.1771 9.56718 15.8917 7.25533 15.8917 7.25533C15.8917 7.25533 16.2827 6.77011 16.3852 6.77011H15.2037C15.2037 6.77011 15.2963 6.83212 15.2244 6.94562C15.1525 7.05921 14.1022 8.63838 14.1022 8.63838L14.1154 7.04552C14.1154 7.04552 14.1135 6.79012 14.2155 6.76867L13.176 6.77011ZM18.1671 7.49336L18.4341 6.76941L16.4321 6.76963C16.4321 6.76963 16.5039 6.8333 16.4117 7.09127C16.3191 7.34956 15.508 9.54753 15.508 9.54753C15.508 9.54753 15.3643 9.83644 15.3235 9.83644H17.387L17.6335 9.1037C17.6335 9.1037 17.6027 9.1449 17.4076 9.1449H16.5348L16.7198 8.64948H17.3972C17.3972 8.64948 17.5411 8.63922 17.5718 8.68055L17.849 7.89737C17.849 7.89737 17.8287 7.96823 17.6436 7.96823H16.9865L17.1818 7.42135H18.0133C18.0133 7.42138 18.1263 7.4057 18.1671 7.49336ZM7.73004 6.08755H8.71771C8.71771 6.08755 8.71464 6.01131 8.74038 5.96177C8.78733 5.87232 8.90986 5.65651 8.90986 5.65651H9.9039L9.90582 5.92573C9.90582 5.92573 9.91092 6.01852 9.83776 6.09011H10.8235C10.8235 6.09011 10.7503 6.04879 10.7368 5.92692L10.6131 3.23302C10.6131 3.23302 10.6078 3.06085 10.6893 3.02459H9.71146C9.71146 3.02459 9.77994 3.10968 9.64902 3.30321C9.51822 3.49676 7.8477 5.98678 7.8477 5.98678C7.8477 5.98678 7.81449 6.05081 7.73004 6.08755ZM9.88496 4.06721L9.33608 4.96497H9.89284L9.88496 4.06721Z" fill="#B7C0BD"/>
</g>
<defs>
<clipPath id="clip0_19_594">
<rect width="25.5145" height="13.4506" fill="white"/>
</clipPath>
</defs>
</svg>
