<svg width="67" height="36" viewBox="0 0 67 36" fill="none" xmlns="http://www.w3.org/2000/svg">
<g opacity="0.4" clip-path="url(#clip0_19_527)">
<rect width="66.5354" height="35.0757" transform="translate(-6.10352e-05 0.0556641)" fill="white" style="mix-blend-mode:color-burn"/>
<path fill-rule="evenodd" clip-rule="evenodd" d="M66.5359 17.5948C66.5359 27.2793 51.6396 35.1304 33.2697 35.1304C14.8949 35.1304 0.000549316 27.2793 0.000549316 17.5948C0.000549316 7.91027 14.8949 0.0592041 33.2697 0.0592041C51.6396 0.0592041 66.5359 7.91027 66.5359 17.5948Z" fill="#C1C9CF"/>
<path fill-rule="evenodd" clip-rule="evenodd" d="M65.159 17.5808C65.159 26.4749 50.8753 33.6852 33.2572 33.6852C15.6383 33.6852 1.35492 26.4749 1.35492 17.5808C1.35492 8.68692 15.6383 1.47705 33.2572 1.47705C50.8753 1.47697 65.159 8.68692 65.159 17.5808ZM33.2572 2.7449C16.3293 2.7449 2.60545 9.38731 2.60545 17.5807C2.60545 25.7742 16.3293 32.4166 33.2572 32.4166C50.1846 32.4166 63.9079 25.7742 63.9079 17.5807C63.9079 9.38731 50.1846 2.7449 33.2572 2.7449Z" fill="#414B47"/>
<path fill-rule="evenodd" clip-rule="evenodd" d="M63.1147 17.5807C63.1147 25.3338 49.747 31.6191 33.2573 31.6191C16.7671 31.6191 3.39951 25.3338 3.39951 17.5807C3.39951 9.82811 16.7671 3.54321 33.2573 3.54321C49.7471 3.54321 63.1147 9.82803 63.1147 17.5807ZM52.3927 11.0085H47.2719L46.6481 12.801H49.9626L46.1819 14.1169L45.932 14.8439L51.7498 12.9261L52.3927 11.0085ZM19.7435 14.1546H17.6575C17.6575 14.1546 19.5908 8.97455 19.7458 8.58292C20.0216 7.88905 20.1863 7.93679 20.1863 7.93679H17.3052C17.6619 8.10836 17.3459 8.78459 17.3459 8.78459C17.3459 8.78459 15.0383 15.2447 14.8775 15.5675C14.7168 15.8909 14.5964 15.9315 14.5964 15.9315H19.5858L20.2837 14.0182C20.2236 14.2004 19.7435 14.1546 19.7435 14.1546ZM28.4955 15.9232H30.8455C30.8455 15.9232 30.6845 15.6835 30.7851 15.4213C30.9243 15.0571 32.171 11.6461 32.171 11.6461L32.713 15.9232H34.8418L37.6324 8.31504C37.6324 8.31504 37.7466 7.9582 37.9023 7.9582L35.6404 7.95151C35.6404 7.95151 35.7051 8.21412 35.6245 8.41612C35.5447 8.61812 34.2588 12.0702 34.2588 12.0702L33.7568 7.95159H31.3274C31.3274 7.95159 31.4531 8.15326 31.3727 8.37524C31.3071 8.55533 28.7971 15.4815 28.7971 15.4815C28.7971 15.4815 28.6365 15.9232 28.4955 15.9232ZM39.2399 7.95376C39.2399 7.95376 39.4406 8.27675 39.1789 9.02338C38.9178 9.77059 36.8696 15.322 36.8696 15.322C36.8696 15.322 36.7084 15.8442 36.4881 15.9456L39.7013 15.942C39.7013 15.942 43.5965 16.0867 44.8018 11.9707C44.8018 11.9707 46.328 7.91305 41.9099 7.95376H39.2399ZM39.5807 14.1037C39.5807 14.1037 39.591 14.1005 39.9519 14.1005C40.4986 14.1005 41.511 13.9794 42.1912 12.3141C43.3092 9.57704 41.7494 9.66959 41.7494 9.66959H41.1468L39.5807 14.1037ZM11.0054 22.369H16.1261L16.7492 20.5762H13.4351L17.2156 19.2605L17.4661 18.5338L11.6481 20.4517L11.0054 22.369ZM19.9792 25.6757C19.8983 25.6757 19.8983 25.4152 19.8983 25.4152L20.8401 22.9028C20.8401 22.9028 22.0134 25.2171 22.094 25.3788C22.1744 25.5405 22.1337 25.675 22.1337 25.675H24.9406C24.6729 25.675 24.3967 25.1636 24.3967 25.1636L22.9994 22.643C24.9539 22.643 25.5791 20.6955 25.5791 20.6955C26.5429 17.6 23.2989 17.6806 23.2989 17.6806H19.9792C20.2199 17.9499 20.0323 18.5152 20.0323 18.5152C20.0323 18.5152 17.9706 24.4407 17.8103 24.8986C17.6495 25.3561 17.3551 25.6757 17.3551 25.6757H19.9792ZM21.9686 19.5187L21.4245 21.1265H21.9333C21.9333 21.1265 22.9243 21.2142 23.2899 20.4221C23.2899 20.4221 23.7177 19.5146 22.522 19.5146C22.2603 19.5146 21.9686 19.5187 21.9686 19.5187ZM49.0228 25.7051C48.822 25.7092 48.9618 25.2152 48.9618 25.2152L49.8022 22.932C49.8022 22.932 50.935 25.2468 51.0145 25.4089C51.0951 25.5701 51.0551 25.7047 51.0551 25.7047H53.9617C53.6937 25.7047 53.399 25.1933 53.399 25.1933L52.0011 22.6719C53.9566 22.6719 54.5448 20.7946 54.5448 20.7946C55.5715 17.5534 52.3017 17.7104 52.3017 17.7104H49.0083C49.2497 17.9796 49.0622 18.5449 49.0622 18.5449C49.0622 18.5449 46.9146 24.4931 46.7534 24.9502C46.5929 25.4088 46.2845 25.7006 46.2845 25.7006L49.0228 25.7051ZM50.9367 21.1555C50.9367 21.1555 51.9201 21.2302 52.2211 20.4557C52.5763 19.5433 51.6898 19.5674 51.6898 19.5674H50.9629L50.4275 21.1555H50.9367ZM29.0502 25.8735C31.9477 25.8735 33.6719 23.0165 33.6719 20.9667C33.6719 18.8165 32.7928 17.4748 30.7851 17.4748C28.2235 17.4748 26.5526 19.4287 26.1213 21.8579C25.725 24.0918 26.9799 25.8735 29.0502 25.8735ZM29.2327 23.9842C29.9554 24.1183 30.75 23.5955 31.165 21.9249C31.7942 19.3968 30.6344 19.3759 30.4228 19.3499C29.7815 19.2712 28.9255 20.0136 28.5777 21.5617C28.4184 22.2687 28.2495 23.801 29.2327 23.9842ZM34.3597 17.7104C34.3597 17.7104 34.5589 17.8179 34.5589 18.3289V25.2467C34.5589 25.2467 34.5317 25.6255 34.3893 25.7047H36.5421C36.5421 25.7047 36.5421 25.5426 36.7558 25.2736C36.9702 25.0044 41.4415 18.9757 41.4415 18.9757C41.4415 18.9757 42.4612 17.7104 42.7285 17.7104H39.6473C39.6473 17.7104 39.8888 17.8721 39.7013 18.168C39.5138 18.4643 36.775 22.5824 36.775 22.5824L36.8093 18.4286C36.8093 18.4286 36.8045 17.7625 37.0704 17.7066L34.3597 17.7104ZM47.3753 19.5964L48.0714 17.7085L42.8508 17.7091C42.8508 17.7091 43.0379 17.8752 42.7976 18.5479C42.5562 19.2214 40.441 24.9532 40.441 24.9532C40.441 24.9532 40.0662 25.7066 39.9597 25.7066H45.3408L45.9836 23.7958C45.9836 23.7958 45.9035 23.9032 45.3947 23.9032H43.1185L43.6009 22.6113H45.3674C45.3674 22.6113 45.7427 22.5845 45.8229 22.6923L46.5456 20.65C46.5456 20.65 46.4928 20.8348 46.01 20.8348H44.2964L44.8059 19.4086H46.9742C46.9742 19.4087 47.2689 19.3678 47.3753 19.5964ZM20.1579 15.9304H22.7335C22.7335 15.9304 22.7255 15.7316 22.7927 15.6024C22.9151 15.3691 23.2346 14.8064 23.2346 14.8064H25.8268L25.8318 15.5084C25.8318 15.5084 25.8451 15.7504 25.6543 15.9371H28.2249C28.2249 15.9371 28.034 15.8293 27.9989 15.5115L27.6764 8.48652C27.6764 8.48652 27.6625 8.03754 27.875 7.94298H25.325C25.325 7.94298 25.5036 8.16488 25.1621 8.66954C24.8211 9.17429 20.4648 15.6676 20.4648 15.6676C20.4648 15.6676 20.3782 15.8346 20.1579 15.9304ZM25.7774 10.6619L24.3461 13.003H25.798L25.7774 10.6619Z" fill="#414B47"/>
</g>
<defs>
<clipPath id="clip0_19_527">
<rect width="66.5354" height="35.0757" fill="white" transform="translate(-6.10352e-05 0.0556641)"/>
</clipPath>
</defs>
</svg>
