<svg width="33" height="33" viewBox="0 0 33 33" fill="none" xmlns="http://www.w3.org/2000/svg">
<g opacity="0.4" clip-path="url(#clip0_19_537)">
<rect width="32.5636" height="31.4143" transform="translate(0.0726929 0.886353)" fill="white" style="mix-blend-mode:color-burn"/>
<path d="M0.0726929 4.5356C0.0726929 3.47786 0.43941 2.60524 1.17281 1.91775C1.90622 1.23022 2.85967 0.886475 4.03312 0.886475C5.18564 0.886475 6.1181 1.22492 6.83057 1.90188C7.56398 2.59998 7.93069 3.50959 7.93069 4.63079C7.93069 5.6462 7.57447 6.49235 6.862 7.16931C6.1286 7.86741 5.16468 8.21645 3.97026 8.21645H3.93883C2.78631 8.21645 1.85385 7.86741 1.14138 7.16931C0.428912 6.47122 0.0726929 5.5933 0.0726929 4.5356ZM0.481309 32.3007V11.104H7.45921V32.3007H0.481309ZM11.3253 32.3007H18.3033V20.4648C18.3033 19.7244 18.3871 19.1532 18.5547 18.7513C18.8481 18.0321 19.2934 17.4239 19.8906 16.9268C20.4878 16.4296 21.2369 16.1811 22.138 16.1811C24.4849 16.1811 25.6583 17.7782 25.6583 20.9725V32.3007H32.6362V20.1475C32.6362 17.0166 31.9028 14.6421 30.436 13.0238C28.9692 11.4055 27.0309 10.5963 24.6211 10.5963C21.9179 10.5963 19.812 11.7704 18.3033 14.1185V14.182H18.2718L18.3033 14.1185V11.104H11.3253C11.3672 11.7809 11.3882 13.8858 11.3882 17.4186C11.3882 20.9514 11.3672 25.912 11.3253 32.3007Z" fill="black"/>
</g>
<defs>
<clipPath id="clip0_19_537">
<rect width="32.5636" height="31.4143" fill="white" transform="translate(0.0726929 0.886353)"/>
</clipPath>
</defs>
</svg>
