<svg width="14" height="13" viewBox="0 0 14 13" fill="none" xmlns="http://www.w3.org/2000/svg">
<path d="M0.615356 2.10173C0.615356 1.69612 0.755982 1.36149 1.03722 1.09786C1.31846 0.83421 1.68409 0.702393 2.13407 0.702393C2.57603 0.702393 2.9336 0.832178 3.20682 1.09177C3.48805 1.35947 3.62868 1.70828 3.62868 2.13823C3.62868 2.52761 3.49208 2.85209 3.21887 3.11169C2.93763 3.37939 2.56799 3.51323 2.10997 3.51323H2.09791C1.65595 3.51323 1.29838 3.37939 1.02517 3.11169C0.751956 2.84399 0.615356 2.50733 0.615356 2.10173ZM0.772049 12.7489V4.62054H3.44788V12.7489H0.772049ZM4.93044 12.7489H7.60627V8.21014C7.60627 7.92621 7.63841 7.70718 7.70269 7.55306C7.81519 7.27724 7.98595 7.04402 8.21496 6.85339C8.44397 6.66275 8.73124 6.56744 9.07677 6.56744C9.97675 6.56744 10.4267 7.1799 10.4267 8.40483V12.7489H13.1026V8.08846C13.1026 6.88786 12.8213 5.97728 12.2588 5.35671C11.6963 4.73613 10.9531 4.42585 10.029 4.42585C8.9924 4.42585 8.18483 4.87607 7.60627 5.77651V5.80085H7.59421L7.60627 5.77651V4.62054H4.93044C4.9465 4.88012 4.95454 5.68727 4.95454 7.042C4.95454 8.39671 4.9465 10.299 4.93044 12.7489Z" fill="white"/>
</svg>
