<svg width="22" height="25" viewBox="0 0 22 25" fill="none" xmlns="http://www.w3.org/2000/svg">
<path d="M21.6691 12.3989C21.6691 13.0434 21.4679 13.672 21.0931 14.1978C20.7184 14.7236 20.1886 15.1206 19.5772 15.3339C19.4125 15.3687 19.2491 15.4117 19.0876 15.4604C17.9686 15.8074 16.9827 16.4859 16.2618 17.4051C15.5408 18.3243 15.1192 19.4406 15.0532 20.6046C15.0404 20.8405 15.0419 21.0771 15.0576 21.3129C14.997 21.8681 14.7871 22.3969 14.4499 22.8436C14.1128 23.2903 13.661 23.6385 13.1419 23.8515C12.6228 24.0645 12.0556 24.1345 11.4999 24.0542C10.9441 23.9738 10.4204 23.7461 9.98379 23.3949C9.54712 23.0437 9.21362 22.5821 9.01831 22.0584C8.823 21.5347 8.7731 20.9684 8.87386 20.4189C8.97461 19.8695 9.2223 19.3571 9.59089 18.9358C9.95949 18.5144 10.4354 18.1995 10.9686 18.0243C11.0898 17.9969 11.2106 17.965 11.331 17.9288C12.485 17.5838 13.5008 16.8871 14.2353 15.937C14.9698 14.9869 15.3858 13.8314 15.4245 12.6335C15.4292 12.488 15.4292 12.3426 15.4245 12.1971C15.3719 11.0196 14.9551 9.88689 14.2309 8.95383C13.5068 8.02078 12.5107 7.33285 11.3787 6.98405C11.2356 6.93915 11.0907 6.9012 10.945 6.86895C10.4128 6.68581 9.94015 6.36307 9.57708 5.93482C9.214 5.50657 8.97398 4.98873 8.88237 4.436C8.79075 3.88328 8.85096 3.3162 9.05661 2.7947C9.26227 2.2732 9.60574 1.81664 10.0507 1.47326C10.4957 1.12988 11.0257 0.91244 11.5847 0.843913C12.1437 0.775386 12.7109 0.858318 13.2264 1.08395C13.7419 1.30957 14.1865 1.66952 14.5134 2.12574C14.8402 2.58197 15.037 3.11753 15.0831 3.67584C15.0774 3.83268 15.0786 3.99205 15.0831 4.14699C15.1409 5.32827 15.565 6.46277 16.2972 7.39463C17.0293 8.32648 18.0337 9.00998 19.1722 9.35121C19.2862 9.38536 19.4006 9.41551 19.5155 9.44165C20.142 9.64597 20.6875 10.0419 21.0743 10.573C21.461 11.1041 21.6692 11.7431 21.6691 12.3989Z" fill="white"/>
<path d="M0.181601 20.3212C0.223414 19.679 0.464406 19.0654 0.871388 18.565C1.27837 18.0646 1.83132 17.702 2.45409 17.5272C2.62364 17.5032 2.79066 17.4711 2.95513 17.4311C4.21316 17.1281 5.33177 16.4121 6.13027 15.3989C6.92876 14.3856 7.36051 13.1342 7.35576 11.8468C7.45211 11.2967 7.69557 10.7826 8.06057 10.3585C8.42558 9.93433 8.89866 9.61573 9.43015 9.43615C9.96165 9.25657 10.532 9.22262 11.0812 9.33788C11.6304 9.45314 12.1383 9.71335 12.5516 10.0912C12.9648 10.469 13.2682 10.9506 13.4298 11.4852C13.5914 12.0199 13.6053 12.588 13.4701 13.1298C13.3348 13.6717 13.0554 14.1674 12.6611 14.5647C12.2668 14.9621 11.7722 15.2466 11.2293 15.3883C11.1021 15.4086 10.976 15.4332 10.851 15.4623C9.67723 15.7341 8.61892 16.3656 7.82536 17.2677C7.0318 18.1698 6.54305 19.2969 6.42807 20.4901C6.41408 20.6305 6.40646 20.7715 6.40328 20.9126C6.34642 21.3541 6.19499 21.7783 5.9592 22.1567C5.7234 22.535 5.40874 22.8586 5.03645 23.1057C4.66417 23.3527 4.24292 23.5174 3.80116 23.5887C3.3594 23.6599 2.90741 23.6361 2.4757 23.5188C2.36443 23.477 2.25253 23.4391 2.13871 23.4056C1.52756 23.1619 1.00934 22.7325 0.657918 22.1787C0.306497 21.6248 0.139805 20.9748 0.181601 20.3212Z" fill="white"/>
</svg>
