<svg width="34" height="33" viewBox="0 0 34 33" fill="none" xmlns="http://www.w3.org/2000/svg">
<g opacity="0.4" clip-path="url(#clip0_19_539)">
<rect width="32.4969" height="32.4969" transform="translate(0.63623 0.345093)" fill="white" style="mix-blend-mode:color-burn"/>
<path fill-rule="evenodd" clip-rule="evenodd" d="M3.88592 0.345093H29.8834C31.6783 0.345093 33.1331 1.79991 33.1331 3.59478V29.5923C33.1331 31.3871 31.6783 32.842 29.8834 32.842H3.88592C2.09105 32.842 0.63623 31.3871 0.63623 29.5923V3.59478C0.63623 1.79991 2.09105 0.345093 3.88592 0.345093Z" fill="#010101"/>
<path fill-rule="evenodd" clip-rule="evenodd" d="M21.0413 30.242C22.0301 30.242 22.8317 29.4468 22.8317 28.4661C22.8317 27.4853 22.0301 26.6901 21.0413 26.6901H20.7715C21.7604 26.6901 22.562 27.4853 22.562 28.4661C22.562 29.4468 21.7604 30.242 20.7715 30.242H21.0413Z" fill="#C1C9CF"/>
<path fill-rule="evenodd" clip-rule="evenodd" d="M20.7473 26.6901H20.4776C19.4887 26.6901 18.687 27.4853 18.687 28.4661C18.687 29.4468 19.4887 30.242 20.4776 30.242H20.7473C19.7583 30.242 18.9567 29.4468 18.9567 28.4661C18.9567 27.4853 19.7583 26.6901 20.7473 26.6901Z" fill="#C1C9CF"/>
<path d="M20.7599 29.3298C21.2408 29.3298 21.6307 28.9432 21.6307 28.4663C21.6307 27.9894 21.2408 27.6028 20.7599 27.6028C20.279 27.6028 19.8891 27.9894 19.8891 28.4663C19.8891 28.9432 20.279 29.3298 20.7599 29.3298Z" fill="#010101"/>
<path fill-rule="evenodd" clip-rule="evenodd" d="M7.13541 25.8876V26.7877H8.18986V30.2178H9.24471V26.812H10.103L10.3973 25.8876H7.13541ZM15.7685 25.8876V26.7877H16.823V30.2178H17.8778V26.812H18.7361L19.0304 25.8876H15.7685ZM10.5937 26.3984C10.5937 26.1164 10.8239 25.8876 11.1083 25.8876C11.393 25.8876 11.6235 26.1164 11.6235 26.3984C11.6235 26.6805 11.3931 26.9093 11.1083 26.9093C10.8239 26.9091 10.5937 26.6805 10.5937 26.3984ZM10.5937 27.2743H11.6235V30.2178H10.5937V27.2743ZM12.0651 25.8876V30.2178H13.0952V29.0989L13.4141 28.8067L14.4195 30.2422H15.5231L14.076 28.15L15.3758 26.8848H14.1251L13.0952 27.9065V25.8876H12.0651ZM23.1751 25.8876V30.2178H24.2054V29.0989L24.5241 28.8067L25.5298 30.2422H26.6335L25.1864 28.15L26.4863 26.8848H25.2355L24.2054 27.9065V25.8876H23.1751Z" fill="white"/>
<path fill-rule="evenodd" clip-rule="evenodd" d="M21.5859 10.8981C23.0085 11.9145 24.7513 12.5126 26.6336 12.5126V8.89231C26.2773 8.89245 25.922 8.85529 25.5735 8.78143V11.6311C23.6914 11.6311 21.9488 11.0331 20.5258 10.0167V17.4045C20.5258 21.1003 17.5283 24.0962 13.8308 24.0962C12.4513 24.0962 11.1689 23.6793 10.1037 22.9644C11.3195 24.2068 13.0149 24.9776 14.8906 24.9776C18.5884 24.9776 21.586 21.9818 21.586 18.2859V10.8981H21.5859ZM22.8936 7.24576C22.1665 6.45193 21.6892 5.42594 21.5859 4.29166V3.82605H20.5813C20.8342 5.26761 21.6966 6.49924 22.8936 7.24576ZM12.4423 20.1284C12.0362 19.5961 11.8166 18.9449 11.8176 18.2753C11.8176 16.585 13.1887 15.2145 14.8802 15.2145C15.1954 15.2143 15.5088 15.2627 15.8092 15.3579V11.6568C15.4582 11.6087 15.1039 11.5883 14.7496 11.5958V14.4766C14.449 14.3813 14.1355 14.333 13.8202 14.3332C12.1286 14.3332 10.7577 15.7037 10.7577 17.3941C10.7577 18.5894 11.443 19.6243 12.4423 20.1284Z" fill="#C1C9CF"/>
<path fill-rule="evenodd" clip-rule="evenodd" d="M20.5266 10.0167C21.9495 11.0331 23.6922 11.6311 25.5743 11.6311V8.78143C24.5237 8.55785 23.5936 8.00905 22.8943 7.24576C21.6974 6.49924 20.8349 5.26761 20.5821 3.82605H17.9435V18.2857C17.9375 19.9714 16.5687 21.3363 14.8808 21.3363C13.8862 21.3363 13.0025 20.8625 12.4429 20.1284C11.4436 19.6243 10.7583 18.5894 10.7583 17.3941C10.7583 15.7037 12.1293 14.3332 13.8208 14.3332C14.1448 14.3332 14.4572 14.3836 14.7502 14.4766V11.5958C11.1177 11.6708 8.19623 14.6374 8.19623 18.2859C8.19623 20.1071 8.92377 21.7582 10.1044 22.9645C11.1697 23.6794 12.452 24.0963 13.8316 24.0963C17.5291 24.0963 20.5266 21.1003 20.5266 17.4047V10.0167Z" fill="white"/>
<path fill-rule="evenodd" clip-rule="evenodd" d="M25.5733 8.78152V8.01096C24.6259 8.01238 23.6972 7.7472 22.8934 7.24572C23.6049 8.02432 24.5418 8.56125 25.5733 8.78152ZM20.5812 3.82614C20.557 3.68839 20.5385 3.5497 20.5257 3.41044V2.94482H16.8824V17.4046C16.8765 19.0902 15.5079 20.455 13.8199 20.455C13.3242 20.455 12.8564 20.3375 12.442 20.1285C13.0016 20.8626 13.8853 21.3364 14.8799 21.3364C16.5677 21.3364 17.9366 19.9715 17.9426 18.2858V3.82614H20.5812ZM14.7494 11.5959V10.7755C14.445 10.7339 14.1381 10.7131 13.8308 10.7133C10.1329 10.7133 7.13541 13.7092 7.13541 17.4046C7.13541 19.7215 8.31348 21.7634 10.1037 22.9645C8.92299 21.7582 8.19545 20.1071 8.19545 18.2858C8.19545 14.6375 11.1168 11.6709 14.7494 11.5959Z" fill="#C1C9CF"/>
<path fill-rule="evenodd" clip-rule="evenodd" d="M20.7718 30.242C21.7607 30.242 22.5624 29.4468 22.5624 28.4661C22.5624 27.4853 21.7607 26.6901 20.7718 26.6901H20.7474C19.7586 26.6901 18.957 27.4853 18.957 28.4661C18.957 29.4468 19.7586 30.242 20.7474 30.242H20.7718ZM19.889 28.4661C19.889 27.989 20.2789 27.6026 20.7599 27.6026C21.2404 27.6026 21.6304 27.989 21.6304 28.4661C21.6304 28.9431 21.2404 29.3298 20.7599 29.3298C20.2789 29.3297 19.889 28.9431 19.889 28.4661Z" fill="white"/>
</g>
<defs>
<clipPath id="clip0_19_539">
<rect width="32.4969" height="32.4969" fill="white" transform="translate(0.63623 0.345093)"/>
</clipPath>
</defs>
</svg>
